<?xml version="1.0" standalone="no"?>
<!DOCTYPE svg PUBLIC "-//W3C//DTD SVG 1.1//EN" "http://www.w3.org/Graphics/SVG/1.1/DTD/svg11.dtd" >
<svg xmlns="http://www.w3.org/2000/svg" xmlns:xlink="http://www.w3.org/1999/xlink" version="1.1">
<metadata>
Created by FontForge 20141024 at Sat Sep 26 14:32:43 2015
 By Jimmy Warting
</metadata>
<defs>
<font id="ecoicon" horiz-adv-x="704" >
  <font-face 
    font-family="ecoicon"
    font-weight="400"
    font-stretch="normal"
    units-per-em="704"
    panose-1="2 0 5 3 0 0 0 0 0 0"
    ascent="672"
    descent="-32"
    bbox="-0.00708008 -32.0002 704 672.007"
    underline-thickness="0"
    underline-position="0"
    unicode-range="U+E000-F000"
  />
<missing-glyph 
 />
    <glyph glyph-name=".notdef" 
 />
    <glyph glyph-name=".notdef" 
 />
    <glyph glyph-name="uniE009" unicode="&#xe009;" 
d="M544 -32h-384c-35.3281 0 -64 28.6719 -64 64v576c0 35.3281 28.6719 64 64 64h384c35.3281 0 64 -28.6719 64 -64v-576c0 -35.3281 -28.6719 -64 -64 -64zM544 608h-384v-576h384v576zM480 128h-256v416h256v-416zM384 64h-64v32h64v-32z" />
    <glyph glyph-name="uniE00A" unicode="&#xe00a;" 
d="M640 96h-220.864c-1.79199 -9.69629 -3.13574 -20.1279 -3.13574 -32c0 -64 64 -64 64 -64c17.6963 -0 32 -7.2002 32 -16c0 -8.83203 -14.3037 -16 -32 -16h-256c-17.6641 0 -32 7.16797 -32 16c0 8.7998 14.3359 16 32 16c0 0 64 0 64 64
c0 11.8721 -1.34375 22.3037 -3.13574 32h-220.864c-35.3281 0 -64 28.6719 -64 64v448c-0 35.3281 28.6719 64 64 64h576c35.3281 0 64 -28.6719 64 -64v-448c0 -35.3281 -28.6719 -64 -64 -64zM640 608h-576v-384h576v384z" />
    <glyph glyph-name="uniE002" unicode="&#xe002;" 
d="M352 -32c-194.4 0 -352 157.6 -352 352s157.6 352 352 352s352 -157.6 352 -352s-157.6 -352 -352 -352zM352 608c-159.072 0 -288 -128.928 -288 -288s128.928 -288 288 -288s288 128.928 288 288s-128.928 288 -288 288zM496.288 150.016l-8.28906 -4.99219
l-24 -15.0078l-14.1436 -10.624c-10.4961 -5.12012 -21.4717 -9.18457 -32.832 -12.6729v14.2725l-4 32.9922s-1.98438 19.0078 -4.99219 24s-9.9834 12 -16.9912 15.0078s-12 3.00781 -16 8s-7.00781 14.0166 -12 22.0166s-11.04 16 -11.04 20v44.9922l4.99219 38.0156
l11.0078 8l12.9922 15.0078l9.02441 2.97559l31.0078 -6.01562h22.0156l8.99219 -19.0078l20.9922 -16.9922l12.9922 -20.9922l16.9922 -6.01562h19.0078l12.9922 -16l8 -16.9922l3.00781 -12v-20l-2.04785 -11.8076c-12.7363 -21.376 -28.8008 -40.1602 -47.6807 -56.1602z
M419.007 495.008l-22.0156 -11.999l-8 -23.0078l-12.9922 -12h-43.0078l-20 -8l-0.992188 -16l-8 -12.9922l-1.98438 -14.0156l4 -12l4.99219 -12s12 -14.0156 0 -24c0 0 -15.0078 0 -17.9834 4.99219s-25.0234 19.0078 -29.0234 23.0078s-16.9922 8 -16.9922 8l-16 6.01562
l-15.0078 0.992188l0.992188 20.9922l-0.992188 18.0156l-6.01562 12.9922l-16.9922 12.9922l-0.992188 14.0156l2.04785 7.77637c40.5117 40.2881 96.3193 65.2158 157.951 65.2158c34.7842 0 67.2959 -8.6084 96.6719 -22.7529l-0.671875 -5.24805z" />
    <glyph glyph-name="uniE000" unicode="&#xe000;" 
d="M600.896 71.1035c-137.472 -137.472 -360.352 -137.472 -497.823 0c-137.44 137.472 -137.44 360.352 0 497.823c137.472 137.44 360.352 137.44 497.823 0c137.472 -137.504 137.472 -360.352 0 -497.823zM531.681 95.0713l-46.1758 46.1758
c-79.2324 -59.2002 -187.776 -59.2002 -266.977 0l-45.4082 -45.376c104.8 -83.7441 253.824 -84.6719 358.561 -0.799805zM465.121 433.151c-62.4639 62.4961 -163.775 62.4971 -226.271 0.000976562s-62.4961 -163.809 0 -226.272
c62.4961 -62.4961 163.808 -62.4961 226.271 0c62.4961 62.4639 62.4961 163.775 0 226.271zM127.042 140.32l46.208 46.1758c-59.2324 79.2324 -59.2324 187.776 0 266.977l-45.376 45.4082c-83.7441 -104.8 -84.6719 -253.824 -0.832031 -358.561zM173.122 544.128
l45.4082 -45.4082c79.2002 59.2324 187.776 59.2324 266.977 0l46.1758 46.208c-104.736 83.8721 -253.761 82.9443 -358.561 -0.799805zM576.931 499.68l-46.1758 -46.208c59.2002 -79.2002 59.2002 -187.776 0 -266.977l45.376 -45.376
c83.7441 104.8 84.6719 253.824 0.799805 358.561z" />
    <glyph glyph-name="uniE001" unicode="&#xe001;" 
d="M608 -32h-512c-35.3281 0 -64 28.6719 -64 64v320c0 35.3281 28.6719 64 64 64h64v64c0 106.016 85.9844 192 192 192s192 -85.9844 192 -192v-64h64c35.3281 0 64 -28.6719 64 -64v-320c0 -35.3281 -28.6719 -64 -64 -64zM480 480c0 70.6875 -57.3125 128 -128 128
s-128 -57.3125 -128 -128v-64h256v64zM608 352h-512v-320h512v320zM352 288c35.3281 0 64 -28.6719 64 -64s-28.6719 -64 -64 -64s-64 28.6719 -64 64s28.6719 64 64 64zM352 160c17.6963 0 32 -14.3037 32 -32s-14.3037 -32 -32 -32c-17.6641 0 -32 14.3037 -32 32
s14.3359 32 32 32z" />
    <glyph glyph-name="uniE003" unicode="&#xe003;" 
d="M704 384v-128l-78.4961 -26.1436c-4.48047 -13.5684 -10.2402 -26.4326 -16.5762 -39.041l37.2158 -74.4639l-90.5283 -90.4961l-74.5283 37.2803c-12.5439 -6.30371 -25.4082 -12.0635 -38.9121 -16.5117l-26.1758 -78.624h-128l-26.208 78.624
c-13.5039 4.44824 -26.3682 10.1758 -38.8799 16.5117l-74.5596 -37.2803l-90.5283 90.4961l37.248 74.4639c-6.33594 12.6084 -12.0957 25.4727 -16.5762 39.041l-78.4961 26.1436v128l78.4961 26.1436c4.48047 13.5684 10.2402 26.4326 16.5762 39.041l-37.2158 74.4639
l90.5283 90.4961l74.5596 -37.2803c12.5439 6.30371 25.376 12.0635 38.8799 16.5117l26.1758 78.624h128l26.1758 -78.624c13.5039 -4.44824 26.3682 -10.1758 38.9121 -16.5117l74.5283 37.2803l90.5283 -90.4961l-37.2158 -74.4639
c6.30371 -12.6084 12.0957 -25.4727 16.5762 -39.041zM572.992 352.736c-5.53613 37.2158 -20.3203 71.3281 -41.7285 100.096l35.6484 59.4883l-22.5918 22.6562l-59.5205 -35.7119c-28.7998 21.2803 -62.8154 35.9365 -99.999 41.4404l-16.7998 67.2959h-32
l-16.832 -67.3281c-37.1523 -5.47168 -71.168 -20.1279 -99.9678 -41.4082l-59.5195 35.7119l-22.624 -22.624l35.6797 -59.4883c-21.4404 -28.7998 -36.1924 -62.8799 -41.7285 -100.128l-67.0078 -16.7363v-32l67.0078 -16.7363
c5.50391 -37.2158 20.2881 -71.3281 41.6963 -100.096l-35.6797 -59.4883l22.624 -22.624l59.5195 35.7119c28.7676 -21.2803 62.8154 -35.9365 99.9678 -41.4404l16.8643 -67.3281h32l16.7998 67.3281c37.1836 5.50391 71.1992 20.1602 99.999 41.4404l59.4883 -35.7119
l22.624 22.624l-35.6484 59.4883c21.4082 28.7676 36.1924 62.8799 41.7285 100.096l67.0078 16.7363v32zM352 224c-53.0244 0 -96 42.9756 -96 96s42.9756 96 96 96c52.9922 0 96 -42.9756 96 -96s-43.0078 -96 -96 -96zM352 352c-17.6641 0 -32 -14.3037 -32 -32
s14.3359 -32 32 -32c17.6963 0 32 14.3037 32 32s-14.3037 32 -32 32z" />
    <glyph glyph-name="uniE004" unicode="&#xe004;" 
d="M352 -32c-194.4 0 -352 157.6 -352 352s157.6 352 352 352s352 -157.6 352 -352s-157.6 -352 -352 -352zM352 608c-159.072 0 -288 -128.928 -288 -288s128.928 -288 288 -288s288 128.928 288 288s-128.928 288 -288 288zM480 288h-72.8633
c-11.1045 -19.0723 -31.4883 -32 -55.1367 -32c-35.3281 0 -64 28.6719 -64 64c0 23.6162 12.9277 44.0322 32 55.1357v136.864c0 17.6963 14.3037 32 32 32s32 -14.3037 32 -32v-136.864c9.59961 -5.59961 17.6318 -13.5674 23.2637 -23.1357h72.7363
c17.6963 0 32 -14.3037 32 -32s-14.3037 -32 -32 -32z" />
    <glyph glyph-name="uniE005" unicode="&#xe005;" 
d="M640 -32h-576c-35.3281 0 -64 28.6719 -64 64v576c-0 35.3281 28.6719 64 64 64h576c35.3281 0 64 -28.6719 64 -64v-576c0 -35.3281 -28.6719 -64 -64 -64zM128 608h-64v-64h64v64zM128 512h-64v-64h64v64zM128 416h-64v-64h64v64zM128 288h-64v-64h64v64zM128 192h-64
v-64h64v64zM128 96h-64v-64h64v64zM544 608h-384v-576h384v576zM640 608h-64v-64h64v64zM640 512h-64v-64h64v64zM640 416h-64v-64h64v64zM640 288h-64v-64h64v64zM640 192h-64v-64h64v64zM640 96h-64v-64h64v64zM320 416c32 0 128 -64 128 -96s-96 -96 -128 -96
s-31.8721 32 -31.8721 32v128s-0.12793 32 31.8721 32z" />
    <glyph glyph-name="uniE006" unicode="&#xe006;" 
d="M640 288h-384c-17.6963 0 -32 14.3037 -32 32s14.3037 32 32 32h384c17.6963 0 32 -14.3037 32 -32s-14.3037 -32 -32 -32zM640 512h-384c-17.6963 0 -32 14.3037 -32 32s14.3037 32 32 32h384c17.6963 0 32 -14.3037 32 -32s-14.3037 -32 -32 -32zM96 32
c-35.3281 0 -64 28.6719 -64 64s28.6719 64 64 64s64 -28.6719 64 -64s-28.6719 -64 -64 -64zM96 256c-35.3281 0 -64 28.6719 -64 64s28.6719 64 64 64s64 -28.6719 64 -64s-28.6719 -64 -64 -64zM96 480c-35.3281 0 -64 28.6719 -64 64s28.6719 64 64 64
s64 -28.6719 64 -64s-28.6719 -64 -64 -64zM256 128h384c17.6963 0 32 -14.3037 32 -32s-14.3037 -32 -32 -32h-384c-17.6963 0 -32 14.3037 -32 32s14.3037 32 32 32z" />
    <glyph glyph-name="uniE007" unicode="&#xe007;" 
d="M672 336l-224 96l89.5361 63.9678c-46.6562 49.1523 -112.416 80.0322 -185.536 80.0322c-124 0 -227.328 -88.1602 -250.912 -205.185l-59.7441 24.7363c33.9844 140.192 160 244.448 310.656 244.448c94.624 0 179.328 -41.3438 237.952 -106.624l82.0479 58.624v-256z
M166.464 144.032c46.624 -49.1523 112.415 -80.0312 185.535 -80.0312c124.48 0 228.097 88.832 251.137 206.56l59.6797 -25.5361c-33.792 -140.48 -159.936 -245.024 -310.815 -245.024c-94.624 -0 -179.36 41.3438 -237.952 106.624l-82.0479 -58.624v256l224 -96z" />
    <glyph glyph-name="uniE008" unicode="&#xe008;" 
d="M640 96v64v448h-448h-64c0 35.3281 28.6719 64 64 64h448c35.3281 0 64 -28.6719 64 -64v-448c0 -35.3281 -28.6719 -64 -64 -64zM576 480v-448c0 -35.3281 -28.6719 -64 -64 -64h-448c-35.3281 0 -64 28.6719 -64 64v448c-0 35.3281 28.6719 64 64 64h448
c35.3281 0 64 -28.6719 64 -64zM64 32h448v448h-448v-448zM224 224l48 -64l80 96l96 -160h-320zM208 288c-26.5283 0 -48 21.4717 -48 48s21.4717 48 48 48s48 -21.4717 48 -48s-21.4717 -48 -48 -48z" />
    <glyph glyph-name="uniE00B" unicode="&#xe00b;" 
d="M615.552 536.448l-47.5518 47.5518l56 56s48 0.992188 48 -47.0078zM96 512v-448h448v304l64 64v-368c0 -35.3281 -28.6719 -64 -64 -64h-448c-35.3281 -0 -64 28.6719 -64 64v448c0 35.3281 28.6719 64 64 64h368l-64 -64h-304zM256 224v48l24 24l47.9678 -47.9678
l-23.9678 -24.0322h-48zM583.616 504.384l-239.681 -240.319l-47.9355 47.9355l240 240z" />
    <glyph glyph-name="uniE00C" unicode="&#xe00c;" 
d="M623.52 48.4482c-62.4961 -62.4316 -163.775 -62.4326 -226.271 -0.000976562l-67.8721 67.9355c-20.6719 20.6396 -33.792 45.6318 -40.7998 71.9355c21.0557 2.55957 41.792 8.06348 61.5684 16.6396c4.19238 -15.8721 12.0967 -30.9443 24.5127 -43.3281
l67.8721 -67.9355c37.5039 -37.4404 98.2715 -37.4404 135.775 0c37.4717 37.5039 37.4717 98.3037 0 135.808l-67.9043 67.8721c-29.5039 29.5039 -73.3115 35.4238 -108.96 18.4639l63.7119 -63.7119c12.5117 -12.5117 12.5117 -32.7354 0 -45.2471
s-32.7354 -12.5117 -45.2471 0l-70.1436 70.1123c-62.1123 -41.1201 -146.624 -34.3682 -201.376 20.3516l-67.9043 67.9043c-62.4639 62.4961 -62.4639 163.808 0 226.271s163.775 62.4961 226.271 0l67.8721 -67.9043c20.6719 -20.6396 33.8242 -45.6641 40.7998 -72
c-21.0557 -2.55957 -41.792 -8.06348 -61.5684 -16.5752c-4.19238 15.8398 -12.0967 30.8799 -24.5127 43.3281l-67.8398 67.9043c-37.5039 37.4717 -98.2715 37.4717 -135.775 0c-37.4717 -37.5039 -37.4717 -98.2715 0 -135.775l67.8721 -67.9043
c29.5361 -29.5039 73.3438 -35.4238 108.992 -18.4639l-63.7119 63.7441c-12.5117 12.5117 -12.5117 32.7676 0 45.2793s32.7354 12.5117 45.2471 0l70.1436 -70.1758c62.1123 41.1523 146.624 34.4004 201.376 -20.3516l67.8721 -67.8721
c62.4961 -62.4961 62.4961 -163.808 0 -226.304z" />
    <glyph glyph-name="uniE00D" unicode="&#xe00d;" 
d="M640 64h-576c-35.3281 0 -64 28.6719 -64 64v384c-0 35.3281 28.6719 64 64 64h576c35.3281 0 64 -28.6719 64 -64v-384c0 -35.3281 -28.6719 -64 -64 -64zM608 128l-183.424 160.512l-72.5762 -64.5117l-72.5762 64.5117l-183.424 -160.512h512zM64 160l180 160
l-180 160v-320zM96 512l256 -224l256 224h-512zM640 480l-180 -160l180 -160v320z" />
    <glyph glyph-name="uniE00E" unicode="&#xe00e;" 
d="M352 -32c0 0 -224 256 -224 480s224 224 224 224s224 0 224 -224s-224 -480 -224 -480zM508.992 477.76c-7.36035 39.1035 -29.1484 72.6992 -59.3564 96.1553c-2.04785 1.63184 -3.9043 3.45605 -6.04785 4.99219c-4.73633 3.36035 -9.98438 6.0166 -15.1367 8.83301
c-4.32031 2.40039 -8.38477 5.02441 -12.9609 7.04004c-4.48047 1.95215 -9.3125 3.10449 -14.0166 4.64062c-5.47168 1.79199 -10.6875 3.93555 -16.4795 5.11914c-10.6562 2.20801 -21.6318 3.45605 -32.9277 3.45605h-0.0644531h-0.160156
c-11.1357 0 -21.9834 -1.18359 -32.4795 -3.32715c-20.96 -4.22363 -39.7119 -12.5439 -56.1602 -23.6475c-0.255859 -0.160156 -0.511719 -0.255859 -0.735352 -0.416016c-6.81641 -4.63965 -12.9287 -9.9834 -18.8809 -15.583
c-1.79199 -1.66406 -3.77637 -3.07227 -5.47266 -4.7998c-4 -4.12793 -7.36035 -8.7041 -10.9121 -13.1846c-3.04004 -3.87207 -6.33594 -7.55176 -9.05566 -11.7119c-1.82422 -2.91211 -3.2002 -6.04785 -4.89648 -9.05566
c-3.3916 -6.04785 -6.84766 -12.0635 -9.47168 -18.5596c-0.992188 -2.43164 -1.47266 -5.02344 -2.33691 -7.51953c-2.43164 -7.04004 -4.89551 -14.0801 -6.33594 -21.5684c-2.01562 -10.0479 -3.10352 -20.3203 -3.10352 -30.624c0 -160 160 -384 160 -384
s160 224 160 384c0 9.95215 -1.02441 19.9365 -3.00879 29.7607zM256.004 447.996c0 53.0244 42.9756 96 96 96s96 -42.9756 96 -96s-42.9756 -96 -96 -96s-96 42.9756 -96 96z" />
    <glyph glyph-name="uniE00F" unicode="&#xe00f;" 
d="M640 32h-576c-64 0 -64 64 -64 64v224l160 288h384l160 -288v-224c0 -64 -64 -64 -64 -64zM512 544h-320l-112 -224h544zM640 256h-576v-160h576v160zM416 160h-128v32h128v-32zM496 416l16 -32h-320l16 32h288zM240 480h224l16 -32h-256z" />
    <glyph glyph-name="uniE010" unicode="&#xe010;" 
d="M384 32h-64c-49.4404 0 -96.0645 11.5195 -137.856 31.5518l-150.144 -95.5518l20.7998 208.128c-33.3115 50.4639 -52.7998 110.88 -52.7998 175.872c-0 176.736 143.264 320 320 320h64c176.736 0 320 -143.264 320 -320s-143.264 -320 -320 -320zM384 608h-64
c-141.376 0 -256 -114.624 -256 -256s114.624 -256 256 -256h64c141.376 0 256 114.624 256 256s-114.624 256 -256 256zM480 320c-17.6963 0 -32 14.3359 -32 32s14.3037 32 32 32s32 -14.3359 32 -32s-14.3037 -32 -32 -32zM352 320c-17.6641 0 -32 14.3359 -32 32
s14.3359 32 32 32c17.6963 0 32 -14.3359 32 -32s-14.3037 -32 -32 -32zM224 320c-17.6641 0 -32 14.3359 -32 32s14.3359 32 32 32s32 -14.3359 32 -32s-14.3359 -32 -32 -32z" />
    <glyph glyph-name="uniE011" unicode="&#xe011;" 
d="M576 672h-448c-35.3281 0 -64 -28.6719 -64 -64v-576c0 -35.3281 28.6719 -64 64 -64h448c35.3281 0 64 28.6719 64 64v576c0 35.3281 -28.6719 64 -64 64zM192 32h-64v576h64v-576zM576 32h-352v576h192v-128l48 48l48 -48v128h64v-576z" />
    <glyph glyph-name="uniE012" unicode="&#xe012;" 
d="M640 32c0 0 0 -64 -64 -64h-448c-64 0 -64 64 -64 64s-34.0156 245.376 180.769 306.368c-32.1924 35.1357 -52.7686 85.3115 -52.7686 141.632c0 106.016 71.6484 192 160 192c88.3838 0 160 -85.9844 160 -192c0 -56.3203 -20.5762 -106.496 -52.7686 -141.632
c214.784 -60.9922 180.769 -306.368 180.769 -306.368zM352 608c0 0 -96 0 -96 -128s96 -128 96 -128s96 0 96 128s-96 128 -96 128zM352 288c-256 0 -224 -256 -224 -256h448s32 256 -224 256z" />
    <glyph glyph-name="uniE013" unicode="&#xe013;" 
d="M596 352h-212v212l61.3115 -61.3115l223.456 134.08l-134.08 -223.488zM148.352 523.648c-85.4082 -85.4082 -105.79 -211.104 -61.4385 -315.936l-37.1523 -67.4561c-80.4482 135.136 -62.9443 312.384 53.3438 428.672s293.536 133.792 428.64 53.3438
l-67.4238 -37.1523c-104.864 44.3203 -230.528 23.9688 -315.969 -61.4717zM108.002 288.001l212 0.000976562v-212l-61.3125 61.3115l-223.456 -134.08l134.08 223.456zM555.65 116.386c85.792 85.7598 105.92 212.096 60.832 317.184l37.2158 67.0723
c81.0557 -135.232 63.7119 -313.024 -52.7998 -429.536c-116.576 -116.544 -294.304 -133.888 -429.536 -52.7998l67.0723 37.2158c105.056 -45.0879 231.456 -24.96 317.216 60.8643z" />
    <glyph glyph-name="uniE014" unicode="&#xe014;" 
d="M510.074 267.308c0 0 55.2266 -182.24 28.5615 -208.908s-185.574 89.4404 -185.574 89.4404s-161.094 -116.108 -187.76 -89.4404s30.7461 208.908 30.7461 208.908s-164.08 137.76 -137.414 164.428s197.388 28.96 197.388 28.96s71.4678 184.346 97.041 184.346
c25.5742 0.0263672 97.041 -184.346 97.041 -184.346s168.531 -2.29199 195.2 -28.96s-135.229 -164.428 -135.229 -164.428zM425.301 405.067c-26.668 26.668 -61.6523 160 -73.332 160s-46.668 -133.331 -73.332 -160c0 0 -140 0 -140 -13.332
s106.668 -66.668 106.668 -106.668s-40 -146.668 -26.668 -160s94.1611 80 133.331 80s120 -93.332 133.331 -80s-26.668 120 -26.668 160s106.668 93.332 106.668 106.668s-139.998 13.332 -139.998 13.332z" />
    <glyph glyph-name="uniF000" unicode="&#xf000;" horiz-adv-x="0" 
d="M0 672l704 -704h-704v704z" />
  </font>
</defs>
</svg>
