<?xml version="1.0" standalone="no"?>
<!DOCTYPE svg PUBLIC "-//W3C//DTD SVG 1.1//EN" "http://www.w3.org/Graphics/SVG/1.1/DTD/svg11.dtd" >
<svg>
<metadata>
Created by FontForge 20120731 at Fri Sep 25 07:53:03 2015
 By root
Copyright (c) 2013 by Paulo R. All rights reserved.
</metadata>
<defs>
<font id="Aspergit" horiz-adv-x="600" >
  <font-face 
    font-family="Aspergit"
    font-weight="400"
    font-stretch="normal"
    units-per-em="1000"
    panose-1="2 0 5 3 0 0 0 2 0 4"
    ascent="750"
    descent="-250"
    x-height="500"
    cap-height="750"
    bbox="-170 -250 1280 920"
    underline-thickness="50"
    underline-position="-50"
    unicode-range="U+0020-F8FF"
  />
<missing-glyph horiz-adv-x="550" 
d="M25 -200v1000h500v-1000h-500zM96 750l179 -390l179 390h-358zM75 -76l172 376l-172 376v-752zM475 676l-172 -376l172 -376v752zM275 240l-179 -390h358z" />
    <glyph glyph-name="perthousand" unicode="&#x30;&#x2f;&#x30;&#x30;" horiz-adv-x="1330" 
d="M625 750l-307 -750h-33l307 750h33zM470 195c0 108 87 195 195 195s195 -87 195 -195s-87 -195 -195 -195s-195 87 -195 195zM500 195c0 -91 74 -165 165 -165s165 74 165 165s-74 165 -165 165s-165 -74 -165 -165zM50 555c0 108 87 195 195 195s195 -87 195 -195
s-87 -195 -195 -195s-195 87 -195 195zM80 555c0 -91 74 -165 165 -165s165 74 165 165s-74 165 -165 165s-165 -74 -165 -165zM890 195c0 108 87 195 195 195s195 -87 195 -195s-87 -195 -195 -195s-195 87 -195 195zM920 195c0 -91 74 -165 165 -165s165 74 165 165
s-74 165 -165 165s-165 -74 -165 -165z" />
    <glyph glyph-name="ellipsis" unicode="&#x2e;&#x2e;&#x2e;" horiz-adv-x="250" 
d="M80 70v-70h-30v70h30zM140 70v-70h-30v70h30zM200 70v-70h-30v70h30z" />
    <glyph glyph-name="OE" unicode="OE" horiz-adv-x="875" 
d="M425 0c-207 0 -375 168 -375 375s168 375 375 375h400v-30h-370v-330h340v-30h-340v-330h370v-30h-400zM80 375c0 -190 155 -345 345 -345v690c-190 0 -345 -155 -345 -345z" />
    <glyph glyph-name="oe" unicode="oe" horiz-adv-x="1070" 
d="M1020 235h-470c8 -114 104 -205 220 -205c60 0 115 24 155 64l22 -20c-45 -46 -107 -74 -177 -74c-108 0 -200 69 -235 165c-35 -96 -127 -165 -235 -165c-138 0 -250 112 -250 250s112 250 250 250c108 0 200 -69 235 -165c35 96 127 165 235 165
c138 0 250 -112 250 -250v-15zM80 250c0 -121 99 -220 220 -220c118 0 220 94 220 220s-102 220 -220 220c-121 0 -220 -99 -220 -220zM770 470c-116 0 -212 -91 -220 -205h439c-8 114 -103 205 -219 205z" />
    <glyph glyph-name="AE" unicode="AE" horiz-adv-x="912" 
d="M462 0v185h-298l-82 -185h-32l332 750h480v-30h-370v-330h340v-30h-340v-330h370v-30h-400zM401 720l-224 -505h285v505h-61z" />
    <glyph glyph-name="ae" unicode="ae" horiz-adv-x="1070" 
d="M1020 235h-470c8 -114 104 -205 220 -205c60 0 115 24 155 64l22 -20c-45 -46 -107 -74 -177 -74c-95 0 -178 53 -220 131v-131h-30v131c-43 -78 -125 -131 -220 -131c-138 0 -250 112 -250 250s112 250 250 250c108 0 200 -69 235 -165c35 96 127 165 235 165
c138 0 250 -112 250 -250v-15zM80 250c0 -121 99 -220 220 -220c118 0 220 94 220 220c0 121 -99 220 -220 220s-220 -99 -220 -220zM770 470c-116 0 -212 -91 -220 -205h439c-8 114 -103 205 -219 205z" />
    <glyph glyph-name="percent" unicode="&#x30;&#x2f;&#x30;" horiz-adv-x="910" 
d="M625 750l-307 -750h-33l307 750h33zM470 195c0 108 87 195 195 195s195 -87 195 -195s-87 -195 -195 -195s-195 87 -195 195zM500 195c0 -91 74 -165 165 -165s165 74 165 165s-74 165 -165 165s-165 -74 -165 -165zM50 555c0 108 87 195 195 195s195 -87 195 -195
s-87 -195 -195 -195s-195 87 -195 195zM80 555c0 -91 74 -165 165 -165s165 74 165 165s-74 165 -165 165s-165 -74 -165 -165z" />
    <glyph glyph-name=".notdef" horiz-adv-x="550" 
d="M25 -200v1000h500v-1000h-500zM96 750l179 -390l179 390h-358zM75 -76l172 376l-172 376v-752zM475 676l-172 -376l172 -376v752zM275 240l-179 -390h358z" />
    <glyph glyph-name="B" unicode="B" 
d="M50 0v750h305c108 0 195 -87 195 -195c0 -82 -50 -151 -120 -180c70 -30 120 -99 120 -180c0 -108 -87 -195 -195 -195h-305zM80 720v-330h275c95 0 165 76 165 165c0 91 -74 165 -165 165h-275zM80 360v-330h275c91 0 165 74 165 165c0 88 -70 165 -165 165h-275z" />
    <glyph glyph-name="C" unicode="C" horiz-adv-x="741" 
d="M670 131l21 -21c-146 -147 -384 -147 -530 0c-147 146 -147 384 0 530c146 147 384 147 530 0l-21 -21c-134 134 -354 134 -488 0s-134 -354 0 -488s354 -134 488 0z" />
    <glyph glyph-name="D" unicode="D" horiz-adv-x="700" 
d="M50 0v750h225c207 0 375 -168 375 -375s-168 -375 -375 -375h-225zM80 720v-690h195c190 0 345 155 345 345s-155 345 -345 345h-195z" />
    <glyph glyph-name="E" unicode="E" horiz-adv-x="500" 
d="M50 0v750h400v-30h-370v-330h340v-30h-340v-330h370v-30h-400z" />
    <glyph glyph-name="G" unicode="G" horiz-adv-x="741" 
d="M182 619c-134 -134 -134 -354 0 -488c131 -131 344 -134 479 -9v178h30v-190c-146 -147 -384 -147 -530 0c-147 146 -147 384 0 530c146 147 384 147 530 0l-21 -21c-134 134 -354 134 -488 0z" />
    <glyph glyph-name="H" unicode="H" horiz-adv-x="550" 
d="M50 0v750h30v-360h390v360h30v-750h-30v360h-390v-360h-30z" />
    <glyph glyph-name="I" unicode="I" horiz-adv-x="130" 
d="M50 0v750h30v-750h-30z" />
    <glyph glyph-name="J" unicode="J" horiz-adv-x="295" 
d="M215 195v555h30v-555c0 -108 -87 -195 -195 -195v30c91 0 165 74 165 165z" />
    <glyph glyph-name="L" unicode="L" horiz-adv-x="500" 
d="M50 0v750h30v-720h370v-30h-400z" />
    <glyph glyph-name="O" unicode="O" horiz-adv-x="850" 
d="M50 375c0 207 168 375 375 375s375 -168 375 -375s-168 -375 -375 -375s-375 168 -375 375zM80 375c0 -190 155 -345 345 -345s345 155 345 345s-155 345 -345 345s-345 -155 -345 -345z" />
    <glyph glyph-name="M" unicode="M" horiz-adv-x="983" 
d="M933 750v-750h-30v720h-51l-343 -598h-36l-342 598h-51v-720h-30v750h100l341 -596l342 596h100z" />
    <glyph glyph-name="N" unicode="N" horiz-adv-x="781" 
d="M731 750v-750h-29l-567 720h-55v-720h-30v750h100l551 -701v701h30z" />
    <glyph glyph-name="P" unicode="P" horiz-adv-x="700" 
d="M50 0v750h325c152 0 275 -123 275 -275s-123 -275 -275 -275h-295v-200h-30zM80 720v-490h295c135 0 245 110 245 245s-110 245 -245 245h-295z" />
    <glyph glyph-name="Q" unicode="Q" horiz-adv-x="858" 
d="M787 -7l-106 106c-148 -136 -377 -132 -520 11c-147 146 -147 384 0 530c146 147 384 147 530 0c143 -143 147 -372 11 -520l106 -106zM182 131c131 -131 342 -134 477 -11l-85 85l22 22l85 -85c123 135 120 346 -11 477c-134 134 -354 134 -488 0s-134 -354 0 -488z" />
    <glyph glyph-name="R" unicode="R" horiz-adv-x="700" 
d="M375 200h-7l200 -200h-42l-200 200h-246v-200h-30v750h325c152 0 275 -123 275 -275s-123 -275 -275 -275zM80 720v-490h295c135 0 245 110 245 245s-110 245 -245 245h-295z" />
    <glyph glyph-name="S" unicode="S" horiz-adv-x="490" 
d="M50 0v30h195c91 0 165 74 165 165c0 241 -360 91 -360 360c0 108 87 195 195 195h195v-30h-195c-91 0 -165 -74 -165 -165c0 -241 360 -91 360 -360c0 -108 -87 -195 -195 -195h-195z" />
    <glyph glyph-name="T" unicode="T" 
d="M50 720v30h500v-30h-235v-720h-30v720h-235z" />
    <glyph glyph-name="U" unicode="U" horiz-adv-x="650" 
d="M325 0c-152 0 -275 123 -275 275v475h30v-475c0 -135 110 -245 245 -245s245 110 245 245v475h30v-475c0 -152 -123 -275 -275 -275z" />
    <glyph glyph-name="X" unicode="X" horiz-adv-x="634" 
d="M299 375l-248 375h37l229 -347l230 347h37l-248 -375l248 -375h-37l-230 347l-230 -347h-37z" />
    <glyph glyph-name="Y" unicode="Y" horiz-adv-x="866" 
d="M448 200v-200h-30v200l-368 550h35l348 -520l347 520h36z" />
    <glyph glyph-name="Z" unicode="Z" 
d="M50 720v30h493v-30l-463 -629v-61h470v-30h-500v100l455 620h-455z" />
    <glyph glyph-name="a" unicode="a" 
d="M520 0v131c-43 -78 -125 -131 -220 -131c-138 0 -250 112 -250 250s112 250 250 250s250 -112 250 -250v-250h-30zM80 250c0 -121 99 -220 220 -220s220 99 220 220s-99 220 -220 220s-220 -99 -220 -220z" />
    <glyph glyph-name="b" unicode="b" 
d="M50 0v750h30v-381c42 78 125 131 220 131c138 0 250 -112 250 -250s-112 -250 -250 -250c-95 0 -178 53 -220 131v-131h-30zM80 250c0 -121 99 -220 220 -220s220 99 220 220s-99 220 -220 220c-118 0 -220 -94 -220 -220z" />
    <glyph glyph-name="c" unicode="c" horiz-adv-x="527" 
d="M456 94l21 -21c-98 -97 -256 -97 -354 0c-97 98 -97 256 0 354c98 97 256 97 354 0l-21 -21c-86 85 -226 85 -312 0c-85 -86 -85 -226 0 -312c86 -85 226 -85 312 0z" />
    <glyph glyph-name="d" unicode="d" 
d="M550 750v-750h-30v131c-42 -78 -125 -131 -220 -131c-138 0 -250 112 -250 250s112 250 250 250c95 0 178 -53 220 -131v381h30zM520 250c0 126 -102 220 -220 220c-121 0 -220 -99 -220 -220s99 -220 220 -220s220 99 220 220z" />
    <glyph glyph-name="e" unicode="e" 
d="M550 235h-470c8 -114 104 -205 220 -205c60 0 115 24 155 64l22 -20c-45 -46 -107 -74 -177 -74c-138 0 -250 112 -250 250s112 250 250 250s250 -112 250 -250v-15zM300 470c-116 0 -212 -91 -220 -205h439c-8 114 -103 205 -219 205z" />
    <glyph glyph-name="f" unicode="f" horiz-adv-x="350" 
d="M80 235v-235h-30v500c0 138 112 250 250 250v-30c-121 0 -220 -99 -220 -220v-235h220v-30h-220z" />
    <glyph glyph-name="g" unicode="g" 
d="M122 -175l21 21c40 -41 96 -66 157 -66c121 0 220 99 220 220v131c-42 -78 -125 -131 -220 -131c-138 0 -250 112 -250 250s112 250 250 250c95 0 178 -53 220 -131v131h30v-500c0 -138 -112 -250 -250 -250c-70 0 -133 29 -178 75zM520 250c0 121 -99 220 -220 220
s-220 -99 -220 -220s99 -220 220 -220c118 0 220 94 220 220z" />
    <glyph glyph-name="h" unicode="h" 
d="M520 0v250c0 121 -99 220 -220 220c-118 0 -220 -94 -220 -211v-259h-30v750h30v-381c42 78 125 131 220 131c138 0 250 -112 250 -250v-250h-30z" />
    <glyph glyph-name="i" unicode="i" horiz-adv-x="130" 
d="M50 0v500h30v-500h-30zM80 750v-100h-30v100h30z" />
    <glyph glyph-name="j" unicode="j" horiz-adv-x="130" 
d="M50 -55v555h30v-555c0 -108 -87 -195 -195 -195v30c91 0 165 74 165 165zM80 750v-100h-30v100h30z" />
    <glyph glyph-name="k" unicode="k" horiz-adv-x="494" 
d="M50 0v750h30v-592l287 342h39l-210 -250l248 -250h-43l-225 226l-96 -115v-111h-30z" />
    <glyph glyph-name="l" unicode="l" horiz-adv-x="130" 
d="M50 0v750h30v-750h-30z" />
    <glyph glyph-name="m" unicode="m" horiz-adv-x="850" 
d="M770 0v250c0 121 -74 220 -165 220c-89 0 -165 -94 -165 -220v-250h-30v250c0 126 -77 220 -165 220c-89 0 -165 -103 -165 -220v-250h-30v500h30v-117c34 70 95 117 165 117c81 0 150 -64 180 -154c29 90 98 154 180 154c108 0 195 -112 195 -250v-250h-30z" />
    <glyph glyph-name="n" unicode="n" 
d="M520 0v250c0 121 -99 220 -220 220c-118 0 -220 -103 -220 -220v-250h-30v500h30v-131c42 78 125 131 220 131c138 0 250 -112 250 -250v-250h-30z" />
    <glyph glyph-name="o" unicode="o" 
d="M50 250c0 138 112 250 250 250s250 -112 250 -250s-112 -250 -250 -250s-250 112 -250 250zM80 250c0 -121 99 -220 220 -220s220 99 220 220s-99 220 -220 220s-220 -99 -220 -220z" />
    <glyph glyph-name="p" unicode="p" 
d="M50 -250v750h30v-131c42 78 125 131 220 131c138 0 250 -112 250 -250s-112 -250 -250 -250c-95 0 -178 53 -220 131v-381h-30zM80 250c0 -121 99 -220 220 -220s220 99 220 220s-99 220 -220 220c-118 0 -220 -94 -220 -220z" />
    <glyph glyph-name="q" unicode="q" 
d="M550 500v-750h-30v381c-42 -78 -125 -131 -220 -131c-138 0 -250 112 -250 250s112 250 250 250c95 0 178 -53 220 -131v131h30zM520 250c0 126 -102 220 -220 220c-121 0 -220 -99 -220 -220s99 -220 220 -220s220 99 220 220z" />
    <glyph glyph-name="r" unicode="r" horiz-adv-x="350" 
d="M80 250v-250h-30v500h30v-131c42 78 125 131 220 131v-30c-121 0 -220 -99 -220 -220z" />
    <glyph glyph-name="s" unicode="s" horiz-adv-x="365" 
d="M50 0v30h132c57 0 103 45 103 102c0 149 -235 57 -235 236c0 73 60 132 133 132h132v-30h-132c-57 0 -103 -45 -103 -102c0 -150 235 -56 235 -236c0 -73 -60 -132 -133 -132h-132z" />
    <glyph glyph-name="u" unicode="u" 
d="M520 250v250h30v-250c0 -138 -112 -250 -250 -250s-250 112 -250 250v250h30v-250c0 -121 99 -220 220 -220s220 99 220 220z" />
    <glyph glyph-name="v" unicode="v" horiz-adv-x="577" 
d="M272 0l-222 500h32l206 -465l207 465h32l-223 -500h-32z" />
    <glyph glyph-name="w" unicode="w" horiz-adv-x="850" 
d="M770 250v250h30v-250c0 -138 -87 -250 -195 -250c-82 0 -151 64 -180 154c-30 -90 -99 -154 -180 -154c-108 0 -195 112 -195 250v250h30v-250c0 -121 74 -220 165 -220c88 0 165 94 165 220v250h30v-250c0 -126 76 -220 165 -220c91 0 165 99 165 220z" />
    <glyph glyph-name="x" unicode="x" horiz-adv-x="468" 
d="M50 0l166 250l-166 250h37l147 -222l147 222h37l-165 -250l165 -250h-37l-147 222l-147 -222h-37z" />
    <glyph glyph-name="y" unicode="y" horiz-adv-x="577" 
d="M527 500l-335 -750h-31l111 250l-222 500h32l206 -465l207 465h32z" />
    <glyph glyph-name="z" unicode="z" horiz-adv-x="490" 
d="M397 470h-347v30h386v-30l-349 -440h353v-30h-390v30z" />
    <glyph glyph-name="one" unicode="1" horiz-adv-x="200" 
d="M50 720v30h100v-750h-30v720h-70z" />
    <glyph glyph-name="three" unicode="3" horiz-adv-x="490" 
d="M80 555h-30c0 108 87 195 195 195s195 -87 195 -195c0 -82 -50 -151 -120 -180c70 -30 120 -99 120 -180c0 -108 -87 -195 -195 -195s-195 87 -195 195h30c0 -91 74 -165 165 -165s165 74 165 165s-74 165 -165 165v30c95 0 165 76 165 165c0 91 -74 165 -165 165
s-165 -74 -165 -165z" />
    <glyph glyph-name="four" unicode="4" horiz-adv-x="500" 
d="M50 235v30l213 485h33l-214 -485h338v235h30v-500h-30v235h-370z" />
    <glyph glyph-name="six" unicode="6" horiz-adv-x="617" 
d="M85 386l210 364h35l-159 -275c78 49 180 55 265 5c123 -71 167 -228 96 -351s-229 -166 -352 -95c-124 71 -165 229 -95 352zM111 371c-62 -109 -26 -248 83 -311c110 -63 249 -25 312 84s25 247 -85 310c-106 62 -244 30 -310 -83z" />
    <glyph glyph-name="seven" unicode="7" horiz-adv-x="490" 
d="M50 720v30h390v-30l-317 -720h-32l317 720h-358z" />
    <glyph glyph-name="eight" unicode="8" horiz-adv-x="615" 
d="M175 618c0 73 59 132 132 132s133 -59 133 -132c0 -47 -25 -89 -63 -113c108 -30 188 -130 188 -247c0 -142 -116 -258 -258 -258s-257 116 -257 258c0 117 79 217 187 247c-37 24 -62 66 -62 113zM80 258c0 -126 101 -228 227 -228s228 102 228 228s-102 227 -228 227
s-227 -101 -227 -227zM205 618c0 -57 45 -103 102 -103s103 46 103 103s-46 102 -103 102s-102 -45 -102 -102z" />
    <glyph glyph-name="nine" unicode="9" horiz-adv-x="617" 
d="M532 363l-210 -364h-35l159 275c-78 -49 -180 -55 -265 -5c-123 71 -167 228 -96 351s229 166 352 95c124 -71 165 -229 95 -352zM506 378c62 109 26 248 -83 311c-110 63 -249 25 -312 -84s-25 -247 85 -310c106 -62 244 -30 310 83z" />
    <glyph glyph-name="F" unicode="F" horiz-adv-x="500" 
d="M50 0v750h400v-30h-370v-330h340v-30h-340v-360h-30z" />
    <glyph glyph-name="K" unicode="K" horiz-adv-x="577" 
d="M527 750l-339 -375l338 -375h-40l-319 352l-84 -94l-3 2v-260h-30v750h30v-449l406 449h41z" />
    <glyph glyph-name="V" unicode="V" horiz-adv-x="864" 
d="M82 750l319 -720h61l319 720h33l-332 -750h-100l-332 750h32z" />
    <glyph glyph-name="W" unicode="W" horiz-adv-x="1197" 
d="M82 750l319 -720h61l120 270h32l120 -270h61l319 720h33l-332 -750h-100l-117 263l-116 -263h-100l-332 750h32z" />
    <glyph glyph-name="t" unicode="t" horiz-adv-x="365" 
d="M50 0v750h30v-250h235v-30h-235v-470h-30z" />
    <glyph glyph-name="zero" unicode="0" horiz-adv-x="490" 
d="M245 750c108 0 195 -87 195 -195v-360c0 -108 -87 -195 -195 -195s-195 87 -195 195v360c0 108 87 195 195 195zM80 555v-360c0 -91 74 -165 165 -165s165 74 165 165v360c0 91 -74 165 -165 165s-165 -74 -165 -165z" />
    <glyph glyph-name="two" unicode="2" horiz-adv-x="490" 
d="M439 0h-379v30l317 427c55 71 40 177 -35 230c-72 54 -176 39 -230 -35c-21 -28 -32 -60 -33 -92h-29c1 38 14 77 39 110c63 87 185 106 272 40c86 -64 104 -186 40 -271l-304 -409h342v-30z" />
    <glyph glyph-name="five" unicode="5" horiz-adv-x="536" 
d="M50 406v344h436v-30h-406v-275c98 78 241 72 333 -18c97 -98 97 -256 0 -354c-98 -97 -256 -97 -354 0l21 21c86 -85 226 -85 312 0c85 86 85 226 0 312c-86 85 -226 85 -312 0h-30z" />
    <glyph glyph-name="ring" unicode="&#x2da;" horiz-adv-x="250" 
d="M50 675c0 41 34 75 75 75s75 -34 75 -75s-34 -75 -75 -75s-75 34 -75 75zM80 675c0 -25 20 -45 45 -45s45 20 45 45s-20 45 -45 45s-45 -20 -45 -45z" />
    <glyph glyph-name="caron" unicode="&#x2c7;" horiz-adv-x="300" 
d="M150 650l-100 100h42l58 -58l58 58h42z" />
    <glyph glyph-name="Lslash" unicode="&#x141;" horiz-adv-x="579" 
d="M65 312l-15 26l79 45v367h30v-349l64 37l15 -26l-79 -46v-336h370v-30h-400v349z" />
    <glyph glyph-name="lslash" unicode="&#x142;" horiz-adv-x="288" 
d="M65 312l-15 26l79 45v367h30v-349l64 37l15 -26l-79 -46v-366h-30v349z" />
    <glyph glyph-name="Zcaron" unicode="&#x17d;" 
d="M50 720v30h493v-30l-463 -629v-61h470v-30h-500v100l455 620h-455zM300 770l-100 100h42l58 -58l58 58h42z" />
    <glyph glyph-name="zcaron" unicode="&#x17e;" horiz-adv-x="490" 
d="M397 470h-347v30h386v-30l-349 -440h353v-30h-390v30zM245 520l-100 100h42l58 -58l58 58h42z" />
    <glyph glyph-name="exclam" unicode="!" horiz-adv-x="130" 
d="M50 250v500h30v-500h-30zM80 100v-100h-30v100h30z" />
    <glyph glyph-name="quotedbl" unicode="&#x22;" horiz-adv-x="190" 
d="M50 600v150h30v-150h-30zM110 600v150h30v-150h-30z" />
    <glyph glyph-name="quotesingle" unicode="'" horiz-adv-x="130" 
d="M50 600v150h30v-150h-30z" />
    <glyph glyph-name="numbersign" unicode="#" horiz-adv-x="698" 
d="M648 99h-184l-26 -99h-31l26 99h-249l-26 -99h-31l26 99h-95l-8 30h111l65 241h-168l-8 30h184l27 100h31l-27 -100h249l27 100h31l-27 -100h95l8 -30h-111l-65 -241h168zM257 370l-65 -241h249l65 241h-249z" />
    <glyph glyph-name="dollar" unicode="$" horiz-adv-x="490" 
d="M50 0v30h180v334c-90 26 -180 56 -180 191c0 103 79 187 180 194v71h30v-70h180v-30h-180v-335c90 -26 180 -56 180 -190c0 -103 -79 -187 -180 -195v-70h-30v70h-180zM80 555c0 -107 71 -137 150 -161v325c-84 -7 -150 -78 -150 -164zM410 195c0 107 -71 137 -150 160
v-325c84 8 150 79 150 165z" />
    <glyph glyph-name="slash" unicode="/" horiz-adv-x="440" 
d="M390 750l-307 -750h-33l307 750h33z" />
    <glyph glyph-name="ampersand" unicode="&#x26;" 
d="M174 466l278 -375c42 40 68 97 68 159h30c0 -72 -31 -138 -80 -183l50 -67h-37l-36 48c-41 -31 -92 -48 -147 -48c-138 0 -250 112 -250 250c0 81 39 154 99 199c-55 85 -35 199 48 261c87 66 209 47 272 -40c25 -33 38 -72 39 -110h-29c-1 32 -12 64 -33 92
c-54 74 -158 89 -230 35c-72 -51 -89 -150 -42 -221zM80 250c0 -121 99 -220 220 -220c48 0 93 15 129 42l-262 353c-53 -41 -87 -104 -87 -175z" />
    <glyph glyph-name="parenleft" unicode="(" horiz-adv-x="175" 
d="M50 45v660c0 41 34 75 75 75v-30c-25 0 -45 -20 -45 -45v-660c0 -25 20 -45 45 -45v-30c-41 0 -75 34 -75 75z" />
    <glyph glyph-name="parenright" unicode=")" horiz-adv-x="175" 
d="M125 705v-660c0 -41 -34 -75 -75 -75v30c25 0 45 20 45 45v660c0 25 -20 45 -45 45v30c41 0 75 -34 75 -75z" />
    <glyph glyph-name="asterisk" unicode="*" horiz-adv-x="396" 
d="M183 520l-112 -112l-21 21l127 127l-127 127l21 21l112 -112v158h30v-158l112 112l21 -21l-127 -127l127 -127l-21 -21l-112 112v-158h-30v158z" />
    <glyph glyph-name="plus" unicode="+" horiz-adv-x="490" 
d="M440 360h-180v-180h-30v180h-180v30h180v180h30v-180h180v-30z" />
    <glyph glyph-name="hyphen" unicode="-" horiz-adv-x="350" 
d="M50 316h250v-30h-250v30z" />
    <glyph glyph-name="endash" unicode="&#x2013;" horiz-adv-x="480" 
d="M430 360h-380v30h380v-30z" />
    <glyph glyph-name="emdash" unicode="&#x2014;" horiz-adv-x="550" 
d="M500 360h-450v30h450v-30z" />
    <glyph glyph-name="comma" unicode="," horiz-adv-x="130" 
d="M80 30v-130h-30v130h30z" />
    <glyph glyph-name="period" unicode="." horiz-adv-x="130" 
d="M80 70v-70h-30v70h30z" />
    <glyph glyph-name="colon" unicode=":" horiz-adv-x="130" 
d="M80 70v-70h-30v70h30zM80 390v-70h-30v70h30z" />
    <glyph glyph-name="semicolon" unicode=";" horiz-adv-x="130" 
d="M80 390v-70h-30v70h30zM80 30v-130h-30v130h30z" />
    <glyph glyph-name="question" unicode="?" horiz-adv-x="490" 
d="M215 250v80h30c91 0 165 74 165 165v60c0 91 -74 165 -165 165s-165 -74 -165 -165h-30c0 108 87 195 195 195s195 -87 195 -195v-60c0 -108 -87 -195 -195 -195v-50h-30zM245 100v-100h-30v100h30z" />
    <glyph glyph-name="at" unicode="@" horiz-adv-x="850" 
d="M50 250c0 207 168 375 375 375s375 -168 375 -375s-168 -375 -375 -375s-375 168 -375 375zM80 250c0 -190 155 -345 345 -345c83 0 160 30 220 80v146c-43 -78 -125 -131 -220 -131c-138 0 -250 112 -250 250s112 250 250 250s250 -112 250 -250v-237
c59 62 95 145 95 237c0 190 -155 345 -345 345s-345 -155 -345 -345zM205 250c0 -121 99 -220 220 -220s220 99 220 220s-99 220 -220 220s-220 -99 -220 -220z" />
    <glyph glyph-name="less" unicode="&#x3c;" horiz-adv-x="371" 
d="M50 358v34l271 153v-35l-240 -135l240 -137v-35z" />
    <glyph glyph-name="greater" unicode="&#x3e;" horiz-adv-x="371" 
d="M321 392v-34l-271 -155v35l240 137l-240 135v35z" />
    <glyph glyph-name="equal" unicode="=" horiz-adv-x="490" 
d="M440 480h-390v30h390v-30zM440 238h-390v30h390v-30z" />
    <glyph glyph-name="bracketleft" unicode="[" horiz-adv-x="175" 
d="M80 750v-750h45v-30h-75v810h75v-30h-45z" />
    <glyph glyph-name="bracketright" unicode="]" horiz-adv-x="175" 
d="M95 0v750h-45v30h75v-810h-75v30h45z" />
    <glyph glyph-name="backslash" unicode="\" horiz-adv-x="440" 
d="M357 0l-307 750h33l307 -750h-33z" />
    <glyph glyph-name="underscore" unicode="_" horiz-adv-x="480" 
d="M430 -40h-380v30h380v-30z" />
    <glyph glyph-name="grave" unicode="`" horiz-adv-x="246" 
d="M181 650l-131 74l15 26l131 -74z" />
    <glyph glyph-name="acute" unicode="&#xb4;" horiz-adv-x="246" 
d="M196 724l-131 -74l-15 26l131 74z" />
    <glyph glyph-name="braceleft" unicode="{" horiz-adv-x="225" 
d="M50 360v30h50v315c0 41 34 75 75 75v-30c-25 0 -45 -20 -45 -45v-660c0 -25 20 -45 45 -45v-30c-41 0 -75 34 -75 75v315h-50z" />
    <glyph glyph-name="braceright" unicode="}" horiz-adv-x="225" 
d="M175 390v-30h-50v-315c0 -41 -34 -75 -75 -75v30c25 0 45 20 45 45v660c0 25 -20 45 -45 45v30c41 0 75 -34 75 -75v-315h50z" />
    <glyph glyph-name="bar" unicode="|" horiz-adv-x="130" 
d="M80 -30h-30v810h30v-810z" />
    <glyph glyph-name="Euro" unicode="&#x20ac;" horiz-adv-x="525" 
d="M50 330v30h237v-30h-154c22 -169 167 -300 342 -300v-30c-192 0 -350 144 -373 330h-52zM50 390v30h52c23 185 181 330 373 330v-30c-175 0 -320 -132 -342 -300h154v-30h-237z" />
    <glyph glyph-name="florin" unicode="&#x192;" horiz-adv-x="350" 
d="M-170 -220c121 0 220 99 220 220v500c0 138 112 250 250 250v-30c-121 0 -220 -99 -220 -220h220v-30h-220v-470c0 -138 -112 -250 -250 -250v30z" />
    <glyph glyph-name="circumflex" unicode="&#x2c6;" horiz-adv-x="400" 
d="M200 750l150 -150h-42l-108 108l-108 -108h-42z" />
    <glyph glyph-name="Scaron" unicode="&#x160;" horiz-adv-x="490" 
d="M50 0v30h195c91 0 165 74 165 165c0 241 -360 91 -360 360c0 108 87 195 195 195h195v-30h-195c-91 0 -165 -74 -165 -165c0 -241 360 -91 360 -360c0 -108 -87 -195 -195 -195h-195zM245 770l-100 100h42l58 -58l58 58h42z" />
    <glyph glyph-name="quoteleft" unicode="&#x2018;" horiz-adv-x="160" 
d="M80 750v-120h30v-30h-60v150h30z" />
    <glyph glyph-name="quotedblleft" unicode="&#x201c;" horiz-adv-x="240" 
d="M80 750v-120h30v-30h-60v150h30zM160 750v-120h30v-30h-60v150h30z" />
    <glyph glyph-name="quoteright" unicode="&#x2019;" horiz-adv-x="160" 
d="M80 600v120h-30v30h60v-150h-30z" />
    <glyph glyph-name="quotedblright" unicode="&#x201d;" horiz-adv-x="240" 
d="M160 600v120h-30v30h60v-150h-30zM80 600v120h-30v30h60v-150h-30z" />
    <glyph glyph-name="bullet" unicode="&#x2022;" horiz-adv-x="250" 
d="M50 375c0 41 34 75 75 75s75 -34 75 -75s-34 -75 -75 -75s-75 34 -75 75z" />
    <glyph glyph-name="tilde" unicode="&#x2dc;" horiz-adv-x="320" 
d="M229 682l-130 35l-16 -17l-33 9l41 41l129 -35l17 17l33 -9z" />
    <glyph glyph-name="scaron" unicode="&#x161;" horiz-adv-x="365" 
d="M50 0v30h132c57 0 103 45 103 102c0 149 -235 57 -235 236c0 73 60 132 133 132h132v-30h-132c-57 0 -103 -45 -103 -102c0 -150 235 -56 235 -236c0 -73 -60 -132 -133 -132h-132zM182 520l-100 100h42l58 -58l58 58h42z" />
    <glyph glyph-name="exclamdown" unicode="&#xa1;" horiz-adv-x="130" 
d="M50 -235v500h30v-500h-30zM80 515v-100h-30v100h30z" />
    <glyph glyph-name="cent" unicode="&#xa2;" horiz-adv-x="527" 
d="M285 -50v51c-59 3 -117 27 -162 72c-97 98 -97 256 0 354c45 44 103 68 162 72v51h30v-51c59 -4 117 -28 162 -72l-21 -21c-39 38 -90 59 -141 63v-438c51 3 102 24 141 63l21 -21c-45 -45 -103 -69 -162 -72v-51h-30zM144 94c39 -39 89 -60 141 -63v438
c-52 -4 -102 -25 -141 -63c-85 -86 -85 -226 0 -312z" />
    <glyph glyph-name="brokenbar" unicode="&#xa6;" horiz-adv-x="130" 
d="M80 780v-355h-30v355h30zM80 -30h-30v355h30v-355z" />
    <glyph glyph-name="dieresis" unicode="&#xa8;" horiz-adv-x="300" 
d="M80 750v-70h-30v70h30zM250 750v-70h-30v70h30z" />
    <glyph glyph-name="plusminus" unicode="&#xb1;" horiz-adv-x="490" 
d="M440 360h-180v-180h-30v180h-180v30h180v180h30v-180h180v-30zM440 120h-390v30h390v-30z" />
    <glyph glyph-name="minus" unicode="&#x2212;" horiz-adv-x="490" 
d="M440 360h-390v30h390v-30z" />
    <glyph glyph-name="mu" unicode="&#xb5;" 
d="M50 -250v750h30v-250c0 -121 99 -220 220 -220c118 0 215 94 220 211v259h30v-500h-30v131c-43 -78 -125 -131 -220 -131s-178 53 -220 131v-381h-30z" />
    <glyph glyph-name="paragraph" unicode="&#xb6;" 
d="M420 -250v970h-105v-970h-30v500c-131 8 -235 117 -235 250s104 243 235 250h265v-30h-100v-970h-30z" />
    <glyph glyph-name="periodcentered" unicode="&#xb7;" horiz-adv-x="130" 
d="M80 410v-70h-30v70h30z" />
    <glyph glyph-name="cedilla" unicode="&#xb8;" horiz-adv-x="163" 
d="M50 -100l32 120h31l-42 -156z" />
    <glyph glyph-name="questiondown" unicode="&#xbf;" horiz-adv-x="490" 
d="M275 250v-80h-30c-91 0 -165 -74 -165 -165v-60c0 -91 74 -165 165 -165s165 74 165 165h30c0 -108 -87 -195 -195 -195s-195 87 -195 195v60c0 108 87 195 195 195v50h30zM245 400v100h30v-100h-30z" />
    <glyph glyph-name="quotesinglbase" unicode="&#x201a;" horiz-adv-x="160" 
d="M80 -100v120h-30v30h60v-150h-30z" />
    <glyph glyph-name="quotedblbase" unicode="&#x201e;" horiz-adv-x="240" 
d="M160 -100v120h-30v30h60v-150h-30zM80 -100v120h-30v30h60v-150h-30z" />
    <glyph glyph-name="Ydieresis" unicode="&#x178;" horiz-adv-x="866" 
d="M448 200v-200h-30v200l-368 550h35l348 -520l347 520h36zM363 820v-70h-30v70h30zM533 820v-70h-30v70h30z" />
    <glyph glyph-name="Ccedilla" unicode="&#xc7;" horiz-adv-x="741" 
d="M339 -100l28 104c-76 12 -148 47 -206 106c-147 146 -147 384 0 530c146 147 384 147 530 0l-21 -21c-134 134 -354 134 -488 0s-134 -354 0 -488s354 -134 488 0l21 -21c-81 -81 -189 -117 -294 -109l-37 -137z" />
    <glyph glyph-name="Eth" unicode="&#xd0;" horiz-adv-x="785" 
d="M50 390h85v360h225c207 0 375 -168 375 -375s-168 -375 -375 -375h-225v360h-85v30zM165 720v-330h85v-30h-85v-330h195c190 0 345 155 345 345s-155 345 -345 345h-195z" />
    <glyph glyph-name="multiply" unicode="&#xd7;" horiz-adv-x="396" 
d="M346 502l-127 -127l127 -127l-21 -21l-127 127l-127 -127l-21 21l127 127l-127 127l21 21l127 -127l127 127z" />
    <glyph glyph-name="Oslash" unicode="&#xd8;" horiz-adv-x="850" 
d="M50 21l99 99c-61 67 -99 157 -99 255c0 207 168 375 375 375c98 0 187 -38 254 -100l100 100l21 -21l-100 -100c62 -67 100 -156 100 -254c0 -207 -168 -375 -375 -375c-98 0 -188 38 -255 99l-99 -99zM770 375c0 89 -35 171 -91 233l-487 -487c61 -57 143 -91 233 -91
c190 0 345 155 345 345zM80 375c0 -90 34 -172 91 -233l487 487c-62 56 -144 91 -233 91c-190 0 -345 -155 -345 -345z" />
    <glyph glyph-name="Thorn" unicode="&#xde;" horiz-adv-x="490" 
d="M50 0v750h30v-180h165c108 0 195 -87 195 -195s-87 -195 -195 -195h-165v-180h-30zM245 540h-165v-330h165c91 0 165 74 165 165s-74 165 -165 165z" />
    <glyph glyph-name="germandbls" unicode="&#xdf;" horiz-adv-x="540" 
d="M50 588v30h50c0 73 59 132 132 132s133 -59 133 -132c0 -47 -25 -89 -63 -113c108 -30 188 -130 188 -247c0 -142 -116 -258 -258 -258v30c126 0 228 102 228 228s-102 227 -228 227v30c57 0 103 46 103 103s-46 102 -103 102s-102 -45 -102 -102v-618h-30v588h-50z" />
    <glyph glyph-name="ccedilla" unicode="&#xe7;" horiz-adv-x="527" 
d="M232 -100l27 103c-50 8 -98 31 -136 70c-97 98 -97 256 0 354c98 97 256 97 354 0l-21 -21c-86 85 -226 85 -312 0c-85 -86 -85 -226 0 -312c86 -85 226 -85 312 0l21 -21c-52 -51 -120 -75 -187 -73l-37 -136z" />
    <glyph glyph-name="eth" unicode="&#xf0;" horiz-adv-x="617" 
d="M402 750h35l-58 -100l153 -264c70 -123 29 -281 -95 -352c-123 -71 -281 -28 -352 95s-27 280 96 351c85 50 187 44 265 -5l-84 145l-40 -70h-35l57 100l-57 100h35l40 -70zM506 371c-66 113 -204 145 -310 83c-110 -63 -148 -201 -85 -310s202 -147 312 -84
c109 63 145 202 83 311z" />
    <glyph glyph-name="divide" unicode="&#xf7;" horiz-adv-x="490" 
d="M440 360h-390v30h390v-30zM260 570v-70h-30v70h30zM260 180h-30v70h30v-70z" />
    <glyph glyph-name="oslash" unicode="&#xf8;" 
d="M50 21l63 63c-40 44 -63 102 -63 166c0 138 112 250 250 250c63 0 122 -24 166 -63l63 63l21 -21l-63 -63c39 -44 63 -103 63 -166c0 -138 -112 -250 -250 -250c-64 0 -122 23 -166 63l-63 -63zM520 250c0 55 -21 106 -55 144l-310 -310c39 -34 90 -54 145 -54
c121 0 220 99 220 220zM80 250c0 -55 20 -106 54 -145l310 310c-38 34 -89 55 -144 55c-121 0 -220 -99 -220 -220z" />
    <glyph glyph-name="thorn" unicode="&#xfe;" 
d="M50 -250v1000h30v-381c42 78 125 131 220 131c138 0 250 -112 250 -250s-112 -250 -250 -250c-95 0 -178 53 -220 131v-381h-30zM80 250c0 -121 99 -220 220 -220s220 99 220 220s-99 220 -220 220c-118 0 -220 -94 -220 -220z" />
    <glyph glyph-name="Agrave" unicode="&#xc0;" horiz-adv-x="864" 
d="M781 0l-82 185h-535l-82 -185h-32l332 750h100l332 -750h-33zM401 720l-224 -505h508l-223 505h-61zM490 770l-131 74l15 26l131 -74z" />
    <glyph glyph-name="Aacute" unicode="&#xc1;" horiz-adv-x="864" 
d="M781 0l-82 185h-535l-82 -185h-32l332 750h100l332 -750h-33zM401 720l-224 -505h508l-223 505h-61zM505 844l-131 -74l-15 26l131 74z" />
    <glyph glyph-name="Acircumflex" unicode="&#xc2;" horiz-adv-x="864" 
d="M781 0l-82 185h-535l-82 -185h-32l332 750h100l332 -750h-33zM401 720l-224 -505h508l-223 505h-61zM432 900l150 -150h-42l-108 108l-108 -108h-42z" />
    <glyph glyph-name="Atilde" unicode="&#xc3;" horiz-adv-x="864" 
d="M781 0l-82 185h-535l-82 -185h-32l332 750h100l332 -750h-33zM401 720l-224 -505h508l-223 505h-61zM501 770l-130 35l-16 -17l-33 9l41 41l129 -35l17 17l33 -9z" />
    <glyph glyph-name="Adieresis" unicode="&#xc4;" horiz-adv-x="864" 
d="M781 0l-82 185h-535l-82 -185h-32l332 750h100l332 -750h-33zM401 720l-224 -505h508l-223 505h-61zM362 840v-70h-30v70h30zM532 840v-70h-30v70h30z" />
    <glyph glyph-name="Aring" unicode="&#xc5;" horiz-adv-x="864" 
d="M781 0l-82 185h-535l-82 -185h-32l332 750h100l332 -750h-33zM401 720l-224 -505h508l-223 505h-61zM357 845c0 41 34 75 75 75s75 -34 75 -75s-34 -75 -75 -75s-75 34 -75 75zM387 845c0 -25 20 -45 45 -45s45 20 45 45s-20 45 -45 45s-45 -20 -45 -45z" />
    <glyph glyph-name="Egrave" unicode="&#xc8;" horiz-adv-x="500" 
d="M50 0v750h400v-30h-370v-330h340v-30h-340v-330h370v-30h-400zM308 770l-131 74l15 26l131 -74z" />
    <glyph glyph-name="Eacute" unicode="&#xc9;" horiz-adv-x="500" 
d="M50 0v750h400v-30h-370v-330h340v-30h-340v-330h370v-30h-400zM323 844l-131 -74l-15 26l131 74z" />
    <glyph glyph-name="Ecircumflex" unicode="&#xca;" horiz-adv-x="500" 
d="M50 0v750h400v-30h-370v-330h340v-30h-340v-330h370v-30h-400zM250 920l150 -150h-42l-108 108l-108 -108h-42z" />
    <glyph glyph-name="Edieresis" unicode="&#xcb;" horiz-adv-x="500" 
d="M50 0v750h400v-30h-370v-330h340v-30h-340v-330h370v-30h-400zM180 840v-70h-30v70h30zM350 840v-70h-30v70h30z" />
    <glyph glyph-name="Igrave" unicode="&#xcc;" horiz-adv-x="246" 
d="M108 0v750h30v-750h-30zM181 770l-131 74l15 26l131 -74z" />
    <glyph glyph-name="Iacute" unicode="&#xcd;" horiz-adv-x="246" 
d="M108 0v750h30v-750h-30zM196 844l-131 -74l-15 26l131 74z" />
    <glyph glyph-name="Icircumflex" unicode="&#xce;" horiz-adv-x="400" 
d="M185 0v750h30v-750h-30zM200 920l150 -150h-42l-108 108l-108 -108h-42z" />
    <glyph glyph-name="Idieresis" unicode="&#xcf;" horiz-adv-x="230" 
d="M80 840v-70h-30v70h30zM180 840v-70h-30v70h30zM100 0v750h30v-750h-30z" />
    <glyph glyph-name="Ntilde" unicode="&#xd1;" horiz-adv-x="781" 
d="M731 750v-750h-29l-567 720h-55v-720h-30v750h100l551 -701v701h30zM459 770l-130 35l-16 -17l-33 9l41 41l129 -35l17 17l33 -9z" />
    <glyph glyph-name="Ograve" unicode="&#xd2;" horiz-adv-x="850" 
d="M50 375c0 207 168 375 375 375s375 -168 375 -375s-168 -375 -375 -375s-375 168 -375 375zM80 375c0 -190 155 -345 345 -345s345 155 345 345s-155 345 -345 345s-345 -155 -345 -345zM483 770l-131 74l15 26l131 -74z" />
    <glyph glyph-name="Oacute" unicode="&#xd3;" horiz-adv-x="850" 
d="M50 375c0 207 168 375 375 375s375 -168 375 -375s-168 -375 -375 -375s-375 168 -375 375zM80 375c0 -190 155 -345 345 -345s345 155 345 345s-155 345 -345 345s-345 -155 -345 -345zM498 844l-131 -74l-15 26l131 74z" />
    <glyph glyph-name="Ocircumflex" unicode="&#xd4;" horiz-adv-x="850" 
d="M50 375c0 207 168 375 375 375s375 -168 375 -375s-168 -375 -375 -375s-375 168 -375 375zM80 375c0 -190 155 -345 345 -345s345 155 345 345s-155 345 -345 345s-345 -155 -345 -345zM425 900l150 -150h-42l-108 108l-108 -108h-42z" />
    <glyph glyph-name="Otilde" unicode="&#xd5;" horiz-adv-x="850" 
d="M50 375c0 207 168 375 375 375s375 -168 375 -375s-168 -375 -375 -375s-375 168 -375 375zM80 375c0 -190 155 -345 345 -345s345 155 345 345s-155 345 -345 345s-345 -155 -345 -345zM494 770l-130 35l-16 -17l-33 9l41 41l129 -35l17 17l33 -9z" />
    <glyph glyph-name="Odieresis" unicode="&#xd6;" horiz-adv-x="850" 
d="M50 375c0 207 168 375 375 375s375 -168 375 -375s-168 -375 -375 -375s-375 168 -375 375zM80 375c0 -190 155 -345 345 -345s345 155 345 345s-155 345 -345 345s-345 -155 -345 -345zM355 840v-70h-30v70h30zM525 840v-70h-30v70h30z" />
    <glyph glyph-name="Ugrave" unicode="&#xd9;" horiz-adv-x="650" 
d="M325 0c-152 0 -275 123 -275 275v475h30v-475c0 -135 110 -245 245 -245s245 110 245 245v475h30v-475c0 -152 -123 -275 -275 -275zM383 750l-131 74l15 26l131 -74z" />
    <glyph glyph-name="Uacute" unicode="&#xda;" horiz-adv-x="650" 
d="M325 0c-152 0 -275 123 -275 275v475h30v-475c0 -135 110 -245 245 -245s245 110 245 245v475h30v-475c0 -152 -123 -275 -275 -275zM398 824l-131 -74l-15 26l131 74z" />
    <glyph glyph-name="Ucircumflex" unicode="&#xdb;" horiz-adv-x="650" 
d="M325 0c-152 0 -275 123 -275 275v475h30v-475c0 -135 110 -245 245 -245s245 110 245 245v475h30v-475c0 -152 -123 -275 -275 -275zM325 900l150 -150h-42l-108 108l-108 -108h-42z" />
    <glyph glyph-name="Udieresis" unicode="&#xdc;" horiz-adv-x="650" 
d="M325 0c-152 0 -275 123 -275 275v475h30v-475c0 -135 110 -245 245 -245s245 110 245 245v475h30v-475c0 -152 -123 -275 -275 -275zM255 820v-70h-30v70h30zM425 820v-70h-30v70h30z" />
    <glyph glyph-name="Yacute" unicode="&#xdd;" horiz-adv-x="866" 
d="M448 200v-200h-30v200l-368 550h35l348 -520l347 520h36zM506 824l-131 -74l-15 26l131 74z" />
    <glyph glyph-name="agrave" unicode="&#xe0;" 
d="M520 0v131c-43 -78 -125 -131 -220 -131c-138 0 -250 112 -250 250s112 250 250 250s250 -112 250 -250v-250h-30zM80 250c0 -121 99 -220 220 -220s220 99 220 220s-99 220 -220 220s-220 -99 -220 -220zM358 520l-131 74l15 26l131 -74z" />
    <glyph glyph-name="aacute" unicode="&#xe1;" 
d="M520 0v131c-43 -78 -125 -131 -220 -131c-138 0 -250 112 -250 250s112 250 250 250s250 -112 250 -250v-250h-30zM80 250c0 -121 99 -220 220 -220s220 99 220 220s-99 220 -220 220s-220 -99 -220 -220zM373 594l-131 -74l-15 26l131 74z" />
    <glyph glyph-name="acircumflex" unicode="&#xe2;" 
d="M520 0v131c-43 -78 -125 -131 -220 -131c-138 0 -250 112 -250 250s112 250 250 250s250 -112 250 -250v-250h-30zM80 250c0 -121 99 -220 220 -220s220 99 220 220s-99 220 -220 220s-220 -99 -220 -220zM300 670l150 -150h-42l-108 108l-108 -108h-42z" />
    <glyph glyph-name="atilde" unicode="&#xe3;" 
d="M520 0v131c-43 -78 -125 -131 -220 -131c-138 0 -250 112 -250 250s112 250 250 250s250 -112 250 -250v-250h-30zM80 250c0 -121 99 -220 220 -220s220 99 220 220s-99 220 -220 220s-220 -99 -220 -220zM369 520l-130 35l-16 -17l-33 9l41 41l129 -35l17 17l33 -9z" />
    <glyph glyph-name="adieresis" unicode="&#xe4;" 
d="M520 0v131c-43 -78 -125 -131 -220 -131c-138 0 -250 112 -250 250s112 250 250 250s250 -112 250 -250v-250h-30zM80 250c0 -121 99 -220 220 -220s220 99 220 220s-99 220 -220 220s-220 -99 -220 -220zM230 600v-70h-30v70h30zM400 600v-70h-30v70h30z" />
    <glyph glyph-name="aring" unicode="&#xe5;" 
d="M520 0v131c-43 -78 -125 -131 -220 -131c-138 0 -250 112 -250 250s112 250 250 250s250 -112 250 -250v-250h-30zM80 250c0 -121 99 -220 220 -220s220 99 220 220s-99 220 -220 220s-220 -99 -220 -220zM225 595c0 41 34 75 75 75s75 -34 75 -75s-34 -75 -75 -75
s-75 34 -75 75zM255 595c0 -25 20 -45 45 -45s45 20 45 45s-20 45 -45 45s-45 -20 -45 -45z" />
    <glyph glyph-name="egrave" unicode="&#xe8;" 
d="M550 235h-470c8 -114 104 -205 220 -205c60 0 115 24 155 64l22 -20c-45 -46 -107 -74 -177 -74c-138 0 -250 112 -250 250s112 250 250 250s250 -112 250 -250v-15zM300 470c-116 0 -212 -91 -220 -205h439c-8 114 -103 205 -219 205zM358 520l-131 74l15 26l131 -74z
" />
    <glyph glyph-name="eacute" unicode="&#xe9;" 
d="M550 235h-470c8 -114 104 -205 220 -205c60 0 115 24 155 64l22 -20c-45 -46 -107 -74 -177 -74c-138 0 -250 112 -250 250s112 250 250 250s250 -112 250 -250v-15zM300 470c-116 0 -212 -91 -220 -205h439c-8 114 -103 205 -219 205zM373 594l-131 -74l-15 26l131 74z
" />
    <glyph glyph-name="ecircumflex" unicode="&#xea;" 
d="M550 235h-470c8 -114 104 -205 220 -205c60 0 115 24 155 64l22 -20c-45 -46 -107 -74 -177 -74c-138 0 -250 112 -250 250s112 250 250 250s250 -112 250 -250v-15zM300 470c-116 0 -212 -91 -220 -205h439c-8 114 -103 205 -219 205zM300 670l150 -150h-42l-108 108
l-108 -108h-42z" />
    <glyph glyph-name="edieresis" unicode="&#xeb;" 
d="M550 235h-470c8 -114 104 -205 220 -205c60 0 115 24 155 64l22 -20c-45 -46 -107 -74 -177 -74c-138 0 -250 112 -250 250s112 250 250 250s250 -112 250 -250v-15zM300 470c-116 0 -212 -91 -220 -205h439c-8 114 -103 205 -219 205zM230 590v-70h-30v70h30zM400 590
v-70h-30v70h30z" />
    <glyph glyph-name="igrave" unicode="&#xec;" horiz-adv-x="246" 
d="M108 0v500h30v-500h-30zM181 520l-131 74l15 26l131 -74z" />
    <glyph glyph-name="iacute" unicode="&#xed;" horiz-adv-x="246" 
d="M108 0v500h30v-500h-30zM196 594l-131 -74l-15 26l131 74z" />
    <glyph glyph-name="icircumflex" unicode="&#xee;" horiz-adv-x="400" 
d="M215 500v-500h-30v500h30zM50 500l150 150l150 -150h-42l-108 108l-108 -108h-42z" />
    <glyph glyph-name="idieresis" unicode="&#xef;" horiz-adv-x="230" 
d="M100 0v500h30v-500h-30zM80 590v-70h-30v70h30zM180 590v-70h-30v70h30z" />
    <glyph glyph-name="ntilde" unicode="&#xf1;" 
d="M520 0v250c0 121 -99 220 -220 220c-118 0 -220 -103 -220 -220v-250h-30v500h30v-131c42 78 125 131 220 131c138 0 250 -112 250 -250v-250h-30zM369 520l-130 35l-16 -17l-33 9l41 41l129 -35l17 17l33 -9z" />
    <glyph glyph-name="ograve" unicode="&#xf2;" 
d="M50 250c0 138 112 250 250 250s250 -112 250 -250s-112 -250 -250 -250s-250 112 -250 250zM80 250c0 -121 99 -220 220 -220s220 99 220 220s-99 220 -220 220s-220 -99 -220 -220zM358 520l-131 74l15 26l131 -74z" />
    <glyph glyph-name="oacute" unicode="&#xf3;" 
d="M50 250c0 138 112 250 250 250s250 -112 250 -250s-112 -250 -250 -250s-250 112 -250 250zM80 250c0 -121 99 -220 220 -220s220 99 220 220s-99 220 -220 220s-220 -99 -220 -220zM373 594l-131 -74l-15 26l131 74z" />
    <glyph glyph-name="otilde" unicode="&#xf5;" 
d="M50 250c0 138 112 250 250 250s250 -112 250 -250s-112 -250 -250 -250s-250 112 -250 250zM80 250c0 -121 99 -220 220 -220s220 99 220 220s-99 220 -220 220s-220 -99 -220 -220zM369 520l-130 35l-16 -17l-33 9l41 41l129 -35l17 17l33 -9z" />
    <glyph glyph-name="odieresis" unicode="&#xf6;" 
d="M50 250c0 138 112 250 250 250s250 -112 250 -250s-112 -250 -250 -250s-250 112 -250 250zM80 250c0 -121 99 -220 220 -220s220 99 220 220s-99 220 -220 220s-220 -99 -220 -220zM230 590v-70h-30v70h30zM400 590v-70h-30v70h30z" />
    <glyph glyph-name="ocircumflex" unicode="&#xf4;" 
d="M50 250c0 138 112 250 250 250s250 -112 250 -250s-112 -250 -250 -250s-250 112 -250 250zM80 250c0 -121 99 -220 220 -220s220 99 220 220s-99 220 -220 220s-220 -99 -220 -220zM300 650l150 -150h-42l-108 108l-108 -108h-42z" />
    <glyph glyph-name="ugrave" unicode="&#xf9;" 
d="M520 250v250h30v-250c0 -138 -112 -250 -250 -250s-250 112 -250 250v250h30v-250c0 -121 99 -220 220 -220s220 99 220 220zM358 500l-131 74l15 26l131 -74z" />
    <glyph glyph-name="uacute" unicode="&#xfa;" 
d="M520 250v250h30v-250c0 -138 -112 -250 -250 -250s-250 112 -250 250v250h30v-250c0 -121 99 -220 220 -220s220 99 220 220zM373 574l-131 -74l-15 26l131 74z" />
    <glyph glyph-name="ucircumflex" unicode="&#xfb;" 
d="M520 250v250h30v-250c0 -138 -112 -250 -250 -250s-250 112 -250 250v250h30v-250c0 -121 99 -220 220 -220s220 99 220 220zM300 650l150 -150h-42l-108 108l-108 -108h-42z" />
    <glyph glyph-name="udieresis" unicode="&#xfc;" 
d="M520 250v250h30v-250c0 -138 -112 -250 -250 -250s-250 112 -250 250v250h30v-250c0 -121 99 -220 220 -220s220 99 220 220zM230 570v-70h-30v70h30zM400 570v-70h-30v70h30z" />
    <glyph glyph-name="yacute" unicode="&#xfd;" horiz-adv-x="577" 
d="M527 500l-335 -750h-31l111 250l-222 500h32l206 -465l207 465h32zM361 574l-131 -74l-15 26l131 74z" />
    <glyph glyph-name="ydieresis" unicode="&#xff;" horiz-adv-x="577" 
d="M527 500l-335 -750h-31l111 250l-222 500h32l206 -465l207 465h32zM218 570v-70h-30v70h30zM388 570v-70h-30v70h30z" />
    <glyph glyph-name="space" unicode=" " horiz-adv-x="250" 
 />
    <glyph glyph-name="A" unicode="A" horiz-adv-x="864" 
d="M781 0l-82 185h-535l-82 -185h-32l332 750h100l332 -750h-33zM401 720l-224 -505h508l-223 505h-61z" />
    <glyph glyph-name="apple" unicode="&#xf8ff;" horiz-adv-x="739" 
d="M20 700h700l-85 -175h-175l-90 -350l-90 350h-175zM270 480l100 -305l100 305h140l-240 -480l-240 480h140z" />
    </font>
</defs>
</svg>
